<svg
  xmlns="http://www.w3.org/2000/svg"
  version="1.1"
  xmlns:xlink="http://www.w3.org/1999/xlink"
  xmlns:svgjs="http://svgjs.dev/svgjs"
  width="1440"
  height="560"
  preserveAspectRatio="none"
  viewBox="0 0 1440 560"
>
  <g mask='url("#SvgjsMask1013")' fill="none">
    <rect
      width="1440"
      height="560"
      x="0"
      y="0"
      fill="rgba(200, 201, 201, 1)"
    ></rect>
    <path
      d="M70.72 324.48L135.68 361.98L135.68 436.98L70.72 474.48L5.77 436.98L5.77 361.98zM5.77 436.98L70.72 474.48L70.72 549.48L5.77 586.98L-59.18 549.48L-59.18 474.48zM70.72 549.48L135.68 586.98L135.68 661.98L70.72 699.48L5.77 661.98L5.77 586.98zM135.68 -13.02L200.63 24.48L200.63 99.48L135.68 136.98L70.72 99.48L70.72 24.48zM135.68 436.98L200.63 474.48L200.63 549.48L135.68 586.98L70.72 549.48L70.72 474.48zM200.63 549.48L265.58 586.98L265.58 661.98L200.63 699.48L135.68 661.98L135.68 586.98zM265.58 -13.02L330.54 24.48L330.54 99.48L265.58 136.98L200.63 99.48L200.63 24.48zM330.54 99.48L395.49 136.98L395.49 211.98L330.54 249.48L265.58 211.98L265.58 136.98zM265.58 436.98L330.54 474.48L330.54 549.48L265.58 586.98L200.63 549.48L200.63 474.48zM330.54 549.48L395.49 586.98L395.49 661.98L330.54 699.48L265.58 661.98L265.58 586.98zM395.49 211.98L460.45 249.48L460.45 324.48L395.49 361.98L330.54 324.48L330.54 249.48zM460.45 324.48L525.4 361.98L525.4 436.98L460.45 474.48L395.49 436.98L395.49 361.98zM525.4 -13.02L590.35 24.48L590.35 99.48L525.4 136.98L460.45 99.48L460.45 24.48zM525.4 211.98L590.35 249.48L590.35 324.48L525.4 361.98L460.45 324.48L460.45 249.48zM525.4 436.98L590.35 474.48L590.35 549.48L525.4 586.98L460.45 549.48L460.45 474.48zM590.35 549.48L655.31 586.98L655.31 661.98L590.35 699.48L525.4 661.98L525.4 586.98zM720.26 99.48L785.22 136.98L785.22 211.98L720.26 249.48L655.31 211.98L655.31 136.98zM655.31 211.98L720.26 249.48L720.26 324.48L655.31 361.98L590.35 324.48L590.35 249.48zM785.21 -13.02L850.17 24.48L850.17 99.48L785.21 136.98L720.26 99.48L720.26 24.48zM785.21 211.98L850.17 249.48L850.17 324.48L785.21 361.98L720.26 324.48L720.26 249.48zM850.17 324.48L915.12 361.98L915.12 436.98L850.17 474.48L785.21 436.98L785.21 361.98zM785.21 436.98L850.17 474.48L850.17 549.48L785.21 586.98L720.26 549.48L720.26 474.48zM980.08 99.48L1045.03 136.98L1045.03 211.98L980.08 249.48L915.12 211.98L915.12 136.98zM1174.94 -13.02L1239.89 24.48L1239.89 99.48L1174.94 136.98L1109.98 99.48L1109.98 24.48zM1239.89 549.48L1304.84 586.98L1304.84 661.98L1239.89 699.48L1174.94 661.98L1174.94 586.98zM1369.8 324.48L1434.75 361.98L1434.75 436.98L1369.8 474.48L1304.85 436.98L1304.85 361.98zM1369.8 549.48L1434.75 586.98L1434.75 661.98L1369.8 699.48L1304.85 661.98L1304.85 586.98zM1434.75 211.98L1499.71 249.48L1499.71 324.48L1434.75 361.98L1369.8 324.48L1369.8 249.48z"
      stroke="rgba(235, 235, 235, 1)"
      stroke-width="2"
    ></path>
    <path
      d="M63.22 324.48 a7.5 7.5 0 1 0 15 0 a7.5 7.5 0 1 0 -15 0zM128.18 361.98 a7.5 7.5 0 1 0 15 0 a7.5 7.5 0 1 0 -15 0zM128.18 436.98 a7.5 7.5 0 1 0 15 0 a7.5 7.5 0 1 0 -15 0zM63.22 474.48 a7.5 7.5 0 1 0 15 0 a7.5 7.5 0 1 0 -15 0zM-1.73 436.98 a7.5 7.5 0 1 0 15 0 a7.5 7.5 0 1 0 -15 0zM-1.73 361.98 a7.5 7.5 0 1 0 15 0 a7.5 7.5 0 1 0 -15 0zM63.22 549.48 a7.5 7.5 0 1 0 15 0 a7.5 7.5 0 1 0 -15 0zM-1.73 586.98 a7.5 7.5 0 1 0 15 0 a7.5 7.5 0 1 0 -15 0zM-66.68 549.48 a7.5 7.5 0 1 0 15 0 a7.5 7.5 0 1 0 -15 0zM-66.68 474.48 a7.5 7.5 0 1 0 15 0 a7.5 7.5 0 1 0 -15 0zM128.18 586.98 a7.5 7.5 0 1 0 15 0 a7.5 7.5 0 1 0 -15 0zM128.18 661.98 a7.5 7.5 0 1 0 15 0 a7.5 7.5 0 1 0 -15 0zM63.22 699.48 a7.5 7.5 0 1 0 15 0 a7.5 7.5 0 1 0 -15 0zM-1.73 661.98 a7.5 7.5 0 1 0 15 0 a7.5 7.5 0 1 0 -15 0zM128.18 -13.02 a7.5 7.5 0 1 0 15 0 a7.5 7.5 0 1 0 -15 0zM193.13 24.48 a7.5 7.5 0 1 0 15 0 a7.5 7.5 0 1 0 -15 0zM193.13 99.48 a7.5 7.5 0 1 0 15 0 a7.5 7.5 0 1 0 -15 0zM128.18 136.98 a7.5 7.5 0 1 0 15 0 a7.5 7.5 0 1 0 -15 0zM63.22 99.48 a7.5 7.5 0 1 0 15 0 a7.5 7.5 0 1 0 -15 0zM63.22 24.48 a7.5 7.5 0 1 0 15 0 a7.5 7.5 0 1 0 -15 0zM193.13 474.48 a7.5 7.5 0 1 0 15 0 a7.5 7.5 0 1 0 -15 0zM193.13 549.48 a7.5 7.5 0 1 0 15 0 a7.5 7.5 0 1 0 -15 0zM258.08 586.98 a7.5 7.5 0 1 0 15 0 a7.5 7.5 0 1 0 -15 0zM258.08 661.98 a7.5 7.5 0 1 0 15 0 a7.5 7.5 0 1 0 -15 0zM193.13 699.48 a7.5 7.5 0 1 0 15 0 a7.5 7.5 0 1 0 -15 0zM258.08 -13.02 a7.5 7.5 0 1 0 15 0 a7.5 7.5 0 1 0 -15 0zM323.04 24.48 a7.5 7.5 0 1 0 15 0 a7.5 7.5 0 1 0 -15 0zM323.04 99.48 a7.5 7.5 0 1 0 15 0 a7.5 7.5 0 1 0 -15 0zM258.08 136.98 a7.5 7.5 0 1 0 15 0 a7.5 7.5 0 1 0 -15 0zM387.99 136.98 a7.5 7.5 0 1 0 15 0 a7.5 7.5 0 1 0 -15 0zM387.99 211.98 a7.5 7.5 0 1 0 15 0 a7.5 7.5 0 1 0 -15 0zM323.04 249.48 a7.5 7.5 0 1 0 15 0 a7.5 7.5 0 1 0 -15 0zM258.08 211.98 a7.5 7.5 0 1 0 15 0 a7.5 7.5 0 1 0 -15 0zM258.08 436.98 a7.5 7.5 0 1 0 15 0 a7.5 7.5 0 1 0 -15 0zM323.04 474.48 a7.5 7.5 0 1 0 15 0 a7.5 7.5 0 1 0 -15 0zM323.04 549.48 a7.5 7.5 0 1 0 15 0 a7.5 7.5 0 1 0 -15 0zM387.99 586.98 a7.5 7.5 0 1 0 15 0 a7.5 7.5 0 1 0 -15 0zM387.99 661.98 a7.5 7.5 0 1 0 15 0 a7.5 7.5 0 1 0 -15 0zM323.04 699.48 a7.5 7.5 0 1 0 15 0 a7.5 7.5 0 1 0 -15 0zM452.95 249.48 a7.5 7.5 0 1 0 15 0 a7.5 7.5 0 1 0 -15 0zM452.95 324.48 a7.5 7.5 0 1 0 15 0 a7.5 7.5 0 1 0 -15 0zM387.99 361.98 a7.5 7.5 0 1 0 15 0 a7.5 7.5 0 1 0 -15 0zM323.04 324.48 a7.5 7.5 0 1 0 15 0 a7.5 7.5 0 1 0 -15 0zM517.9 361.98 a7.5 7.5 0 1 0 15 0 a7.5 7.5 0 1 0 -15 0zM517.9 436.98 a7.5 7.5 0 1 0 15 0 a7.5 7.5 0 1 0 -15 0zM452.95 474.48 a7.5 7.5 0 1 0 15 0 a7.5 7.5 0 1 0 -15 0zM387.99 436.98 a7.5 7.5 0 1 0 15 0 a7.5 7.5 0 1 0 -15 0zM517.9 -13.02 a7.5 7.5 0 1 0 15 0 a7.5 7.5 0 1 0 -15 0zM582.85 24.48 a7.5 7.5 0 1 0 15 0 a7.5 7.5 0 1 0 -15 0zM582.85 99.48 a7.5 7.5 0 1 0 15 0 a7.5 7.5 0 1 0 -15 0zM517.9 136.98 a7.5 7.5 0 1 0 15 0 a7.5 7.5 0 1 0 -15 0zM452.95 99.48 a7.5 7.5 0 1 0 15 0 a7.5 7.5 0 1 0 -15 0zM452.95 24.48 a7.5 7.5 0 1 0 15 0 a7.5 7.5 0 1 0 -15 0zM517.9 211.98 a7.5 7.5 0 1 0 15 0 a7.5 7.5 0 1 0 -15 0zM582.85 249.48 a7.5 7.5 0 1 0 15 0 a7.5 7.5 0 1 0 -15 0zM582.85 324.48 a7.5 7.5 0 1 0 15 0 a7.5 7.5 0 1 0 -15 0zM582.85 474.48 a7.5 7.5 0 1 0 15 0 a7.5 7.5 0 1 0 -15 0zM582.85 549.48 a7.5 7.5 0 1 0 15 0 a7.5 7.5 0 1 0 -15 0zM517.9 586.98 a7.5 7.5 0 1 0 15 0 a7.5 7.5 0 1 0 -15 0zM452.95 549.48 a7.5 7.5 0 1 0 15 0 a7.5 7.5 0 1 0 -15 0zM647.81 586.98 a7.5 7.5 0 1 0 15 0 a7.5 7.5 0 1 0 -15 0zM647.81 661.98 a7.5 7.5 0 1 0 15 0 a7.5 7.5 0 1 0 -15 0zM582.85 699.48 a7.5 7.5 0 1 0 15 0 a7.5 7.5 0 1 0 -15 0zM517.9 661.98 a7.5 7.5 0 1 0 15 0 a7.5 7.5 0 1 0 -15 0zM712.76 99.48 a7.5 7.5 0 1 0 15 0 a7.5 7.5 0 1 0 -15 0zM777.72 136.98 a7.5 7.5 0 1 0 15 0 a7.5 7.5 0 1 0 -15 0zM777.72 211.98 a7.5 7.5 0 1 0 15 0 a7.5 7.5 0 1 0 -15 0zM712.76 249.48 a7.5 7.5 0 1 0 15 0 a7.5 7.5 0 1 0 -15 0zM647.81 211.98 a7.5 7.5 0 1 0 15 0 a7.5 7.5 0 1 0 -15 0zM647.81 136.98 a7.5 7.5 0 1 0 15 0 a7.5 7.5 0 1 0 -15 0zM712.76 324.48 a7.5 7.5 0 1 0 15 0 a7.5 7.5 0 1 0 -15 0zM647.81 361.98 a7.5 7.5 0 1 0 15 0 a7.5 7.5 0 1 0 -15 0zM777.71 -13.02 a7.5 7.5 0 1 0 15 0 a7.5 7.5 0 1 0 -15 0zM842.67 24.48 a7.5 7.5 0 1 0 15 0 a7.5 7.5 0 1 0 -15 0zM842.67 99.48 a7.5 7.5 0 1 0 15 0 a7.5 7.5 0 1 0 -15 0zM777.71 136.98 a7.5 7.5 0 1 0 15 0 a7.5 7.5 0 1 0 -15 0zM712.76 24.48 a7.5 7.5 0 1 0 15 0 a7.5 7.5 0 1 0 -15 0zM777.71 211.98 a7.5 7.5 0 1 0 15 0 a7.5 7.5 0 1 0 -15 0zM842.67 249.48 a7.5 7.5 0 1 0 15 0 a7.5 7.5 0 1 0 -15 0zM842.67 324.48 a7.5 7.5 0 1 0 15 0 a7.5 7.5 0 1 0 -15 0zM777.71 361.98 a7.5 7.5 0 1 0 15 0 a7.5 7.5 0 1 0 -15 0zM907.62 361.98 a7.5 7.5 0 1 0 15 0 a7.5 7.5 0 1 0 -15 0zM907.62 436.98 a7.5 7.5 0 1 0 15 0 a7.5 7.5 0 1 0 -15 0zM842.67 474.48 a7.5 7.5 0 1 0 15 0 a7.5 7.5 0 1 0 -15 0zM777.71 436.98 a7.5 7.5 0 1 0 15 0 a7.5 7.5 0 1 0 -15 0zM842.67 549.48 a7.5 7.5 0 1 0 15 0 a7.5 7.5 0 1 0 -15 0zM777.71 586.98 a7.5 7.5 0 1 0 15 0 a7.5 7.5 0 1 0 -15 0zM712.76 549.48 a7.5 7.5 0 1 0 15 0 a7.5 7.5 0 1 0 -15 0zM712.76 474.48 a7.5 7.5 0 1 0 15 0 a7.5 7.5 0 1 0 -15 0zM972.58 99.48 a7.5 7.5 0 1 0 15 0 a7.5 7.5 0 1 0 -15 0zM1037.53 136.98 a7.5 7.5 0 1 0 15 0 a7.5 7.5 0 1 0 -15 0zM1037.53 211.98 a7.5 7.5 0 1 0 15 0 a7.5 7.5 0 1 0 -15 0zM972.58 249.48 a7.5 7.5 0 1 0 15 0 a7.5 7.5 0 1 0 -15 0zM907.62 211.98 a7.5 7.5 0 1 0 15 0 a7.5 7.5 0 1 0 -15 0zM907.62 136.98 a7.5 7.5 0 1 0 15 0 a7.5 7.5 0 1 0 -15 0zM1167.44 -13.02 a7.5 7.5 0 1 0 15 0 a7.5 7.5 0 1 0 -15 0zM1232.39 24.48 a7.5 7.5 0 1 0 15 0 a7.5 7.5 0 1 0 -15 0zM1232.39 99.48 a7.5 7.5 0 1 0 15 0 a7.5 7.5 0 1 0 -15 0zM1167.44 136.98 a7.5 7.5 0 1 0 15 0 a7.5 7.5 0 1 0 -15 0zM1102.48 99.48 a7.5 7.5 0 1 0 15 0 a7.5 7.5 0 1 0 -15 0zM1102.48 24.48 a7.5 7.5 0 1 0 15 0 a7.5 7.5 0 1 0 -15 0zM1232.39 549.48 a7.5 7.5 0 1 0 15 0 a7.5 7.5 0 1 0 -15 0zM1297.34 586.98 a7.5 7.5 0 1 0 15 0 a7.5 7.5 0 1 0 -15 0zM1297.34 661.98 a7.5 7.5 0 1 0 15 0 a7.5 7.5 0 1 0 -15 0zM1232.39 699.48 a7.5 7.5 0 1 0 15 0 a7.5 7.5 0 1 0 -15 0zM1167.44 661.98 a7.5 7.5 0 1 0 15 0 a7.5 7.5 0 1 0 -15 0zM1167.44 586.98 a7.5 7.5 0 1 0 15 0 a7.5 7.5 0 1 0 -15 0zM1362.3 324.48 a7.5 7.5 0 1 0 15 0 a7.5 7.5 0 1 0 -15 0zM1427.25 361.98 a7.5 7.5 0 1 0 15 0 a7.5 7.5 0 1 0 -15 0zM1427.25 436.98 a7.5 7.5 0 1 0 15 0 a7.5 7.5 0 1 0 -15 0zM1362.3 474.48 a7.5 7.5 0 1 0 15 0 a7.5 7.5 0 1 0 -15 0zM1297.35 436.98 a7.5 7.5 0 1 0 15 0 a7.5 7.5 0 1 0 -15 0zM1297.35 361.98 a7.5 7.5 0 1 0 15 0 a7.5 7.5 0 1 0 -15 0zM1362.3 549.48 a7.5 7.5 0 1 0 15 0 a7.5 7.5 0 1 0 -15 0zM1427.25 586.98 a7.5 7.5 0 1 0 15 0 a7.5 7.5 0 1 0 -15 0zM1427.25 661.98 a7.5 7.5 0 1 0 15 0 a7.5 7.5 0 1 0 -15 0zM1362.3 699.48 a7.5 7.5 0 1 0 15 0 a7.5 7.5 0 1 0 -15 0zM1297.35 661.98 a7.5 7.5 0 1 0 15 0 a7.5 7.5 0 1 0 -15 0zM1297.35 586.98 a7.5 7.5 0 1 0 15 0 a7.5 7.5 0 1 0 -15 0zM1427.25 211.98 a7.5 7.5 0 1 0 15 0 a7.5 7.5 0 1 0 -15 0zM1492.21 249.48 a7.5 7.5 0 1 0 15 0 a7.5 7.5 0 1 0 -15 0zM1492.21 324.48 a7.5 7.5 0 1 0 15 0 a7.5 7.5 0 1 0 -15 0zM1362.3 249.48 a7.5 7.5 0 1 0 15 0 a7.5 7.5 0 1 0 -15 0z"
      fill="rgba(235, 235, 235, 1)"
    ></path>
    <path
      d="M68.81 194.3L112.12 219.3L112.12 269.3L68.81 294.3L25.51 269.3L25.51 219.3zM68.81 344.3L112.12 369.3L112.12 419.3L68.81 444.3L25.51 419.3L25.51 369.3zM112.12 -30.7L155.42 -5.7L155.42 44.3L112.12 69.3L68.81 44.3L68.81 -5.7zM112.12 119.3L155.42 144.3L155.42 194.3L112.12 219.3L68.81 194.3L68.81 144.3zM155.42 194.3L198.72 219.3L198.72 269.3L155.42 294.3L112.12 269.3L112.12 219.3zM198.72 -30.7L242.02 -5.7L242.02 44.3L198.72 69.3L155.42 44.3L155.42 -5.7zM198.72 269.3L242.02 294.3L242.02 344.3L198.72 369.3L155.42 344.3L155.42 294.3zM242.02 494.3L285.32 519.3L285.32 569.3L242.02 594.3L198.72 569.3L198.72 519.3zM285.32 -30.7L328.63 -5.7L328.63 44.3L285.32 69.3L242.02 44.3L242.02 -5.7zM328.63 44.3L371.93 69.3L371.93 119.3L328.63 144.3L285.32 119.3L285.32 69.3zM285.32 269.3L328.63 294.3L328.63 344.3L285.32 369.3L242.02 344.3L242.02 294.3zM415.23 44.3L458.54 69.3L458.54 119.3L415.23 144.3L371.93 119.3L371.93 69.3zM371.93 119.3L415.23 144.3L415.23 194.3L371.93 219.3L328.63 194.3L328.63 144.3zM371.93 419.3L415.23 444.3L415.23 494.3L371.93 519.3L328.63 494.3L328.63 444.3zM415.23 494.3L458.54 519.3L458.54 569.3L415.23 594.3L371.93 569.3L371.93 519.3zM458.54 -30.7L501.84 -5.7L501.84 44.3L458.54 69.3L415.23 44.3L415.23 -5.7zM458.54 269.3L501.84 294.3L501.84 344.3L458.54 369.3L415.23 344.3L415.23 294.3zM501.84 344.3L545.14 369.3L545.14 419.3L501.84 444.3L458.54 419.3L458.54 369.3zM458.54 419.3L501.84 444.3L501.84 494.3L458.54 519.3L415.23 494.3L415.23 444.3zM501.84 494.3L545.14 519.3L545.14 569.3L501.84 594.3L458.54 569.3L458.54 519.3zM545.14 -30.7L588.44 -5.7L588.44 44.3L545.14 69.3L501.84 44.3L501.84 -5.7zM588.44 44.3L631.75 69.3L631.75 119.3L588.44 144.3L545.14 119.3L545.14 69.3zM588.44 194.3L631.75 219.3L631.75 269.3L588.44 294.3L545.14 269.3L545.14 219.3zM545.14 269.3L588.44 294.3L588.44 344.3L545.14 369.3L501.84 344.3L501.84 294.3zM675.05 494.3L718.35 519.3L718.35 569.3L675.05 594.3L631.75 569.3L631.75 519.3zM718.35 119.3L761.65 144.3L761.65 194.3L718.35 219.3L675.05 194.3L675.05 144.3zM718.35 419.3L761.65 444.3L761.65 494.3L718.35 519.3L675.05 494.3L675.05 444.3zM804.96 -30.7L848.26 -5.7L848.26 44.3L804.96 69.3L761.65 44.3L761.65 -5.7zM848.26 44.3L891.56 69.3L891.56 119.3L848.26 144.3L804.96 119.3L804.96 69.3zM848.26 194.3L891.56 219.3L891.56 269.3L848.26 294.3L804.96 269.3L804.96 219.3zM891.56 119.3L934.86 144.3L934.86 194.3L891.56 219.3L848.26 194.3L848.26 144.3zM1021.47 194.3L1064.77 219.3L1064.77 269.3L1021.47 294.3L978.17 269.3L978.17 219.3zM978.17 269.3L1021.47 294.3L1021.47 344.3L978.17 369.3L934.86 344.3L934.86 294.3zM978.17 419.3L1021.47 444.3L1021.47 494.3L978.17 519.3L934.86 494.3L934.86 444.3zM1064.77 269.3L1108.07 294.3L1108.07 344.3L1064.77 369.3L1021.47 344.3L1021.47 294.3zM1064.77 419.3L1108.07 444.3L1108.07 494.3L1064.77 519.3L1021.47 494.3L1021.47 444.3zM1151.38 -30.7L1194.68 -5.7L1194.68 44.3L1151.38 69.3L1108.07 44.3L1108.07 -5.7zM1151.38 269.3L1194.68 294.3L1194.68 344.3L1151.38 369.3L1108.07 344.3L1108.07 294.3zM1237.98 119.3L1281.28 144.3L1281.28 194.3L1237.98 219.3L1194.68 194.3L1194.68 144.3zM1281.28 494.3L1324.59 519.3L1324.59 569.3L1281.28 594.3L1237.98 569.3L1237.98 519.3zM1324.59 119.3L1367.89 144.3L1367.89 194.3L1324.59 219.3L1281.28 194.3L1281.28 144.3zM1324.59 269.3L1367.89 294.3L1367.89 344.3L1324.59 369.3L1281.28 344.3L1281.28 294.3zM1367.89 344.3L1411.19 369.3L1411.19 419.3L1367.89 444.3L1324.59 419.3L1324.59 369.3zM1367.89 494.3L1411.19 519.3L1411.19 569.3L1367.89 594.3L1324.59 569.3L1324.59 519.3zM1411.19 119.3L1454.49 144.3L1454.49 194.3L1411.19 219.3L1367.89 194.3L1367.89 144.3z"
      stroke="rgba(146, 146, 146, 0.93)"
      stroke-width="2"
    ></path>
  </g>
  <defs>
    <mask id="SvgjsMask1013">
      <rect width="1440" height="560" fill="#ffffff"></rect>
    </mask>
  </defs>
</svg>
